<?xml version="1.0" encoding="utf-8"?>
<!-- Generator: Adobe Illustrator 21.1.0, SVG Export Plug-In . SVG Version: 6.00 Build 0)  -->
<svg version="1.1" id="Layer_1" xmlns="http://www.w3.org/2000/svg" xmlns:xlink="http://www.w3.org/1999/xlink" x="0px" y="0px"
	 viewBox="0 0 215 23.2" style="enable-background:new 0 0 215 23.2;" xml:space="preserve">
<style type="text/css">
	.st0{fill:#EADA16;}
</style>
<g>
	<g>
		<g>
			<path class="st0" d="M99.2,22.2c1.4,0,1.8-1.1,1.4-2.3c9.5-2.4,7.6-16.7-1.8-16.2C93,3.9,89.4,11.6,93.7,16l1.8-2.2
				C93.6,12.1,94,8,98.9,7.9c3.2,0,5.3,2.2,5.2,5c-0.1,4.5-6.3,7.2-10.5,3.7c-1.1,1.1-2.4,1.7-4,1.7h-7.2c-2.4,0-3.8-1.5-3.9-3.3
				c-0.1-1.6,1-3.4,3.7-3.5c1.8,0,3.5,1.2,3.5,2.8s-1.5,2.4-2.6,2.4c-2.7,0-2.8-3.2-0.3-3.1c1.4,0,1.5,1.6,0.5,1.6
				c-0.5,0-0.8-0.7-0.4-1.1c-0.5-0.1-1,0.4-1,1.1c0.1,0.7,0.6,1.1,1.2,1.1c0.8,0,1.7-0.6,1.7-1.9S83.6,12,82.2,12
				c-1.8,0.1-2.7,1.7-2.7,3c0,1.4,1,3,2.8,3h7.2c1.4,0,2.6-0.6,3.6-1.6c-5.7-4.1-2.5-13.2,5.7-13.2c4.2,0,7.2,2.1,8.5,4.9v7.6
				c-1,2.1-3.2,3.8-6.1,4.6C102.1,22.2,100.1,23.1,99.2,22.2L99.2,22.2z M94.1,16.3c3.6,3.1,8.5,1.1,8.8-3.2
				c0.1-2.4-1.7-4.8-4.3-4.7c-2.8,0.2-3.6,3.3-2.6,4.8c0.8-0.9,1.5-1.4,2.4-1.6c3.3-0.4,3.3,3.4,0.1,3.4c-0.9,0-1.9-0.2-2.6-0.8
				L94.1,16.3L94.1,16.3z M96.3,13.6c0.7,0.8,1.5,1,2.1,0.9c1.7-0.2,1.5-2.4-0.1-2.3C97.7,12.2,97.1,12.8,96.3,13.6z"/>
			<path class="st0" d="M88.3,16.5c0.3,0,0.6-0.3,0.6-0.6c0-0.8-0.8-1.1-1.4-1.1c-1.1,0.1-1.6,1-1.6,1.4c-0.1,1,0.7,2.2,3.4,2.2V18
				c-1.2,0-2.6-0.4-2.6-1.6c0-0.8,0.7-1.2,1.2-1c-0.2,0.1-0.3,0.3-0.3,0.5C87.7,16.2,87.9,16.5,88.3,16.5z"/>
			<path class="st0" d="M77.7,20.1h3c-1.9-0.3-3.6-1.1-3.2-3.2C76.1,17.5,76.2,19.6,77.7,20.1z"/>
			<path class="st0" d="M105.4,17.8c0.3,1.5,1,2.3,2.2,2.5v0.8c-1.7-0.4-2.9-1.4-3-3.1L105.4,17.8z"/>
			<path class="st0" d="M104,5.1c-2.3-1.5-1.8-4.9,1.2-5.1c1-0.1,2,0.5,2.4,1.3v2c-0.4,0.7-1.1,1-1.7,0.9c-2.1,0-2.1-2.6-0.3-2.7
				c0.6,0,1.1,0.4,1.1,1c0,0.2-0.2,0.4-0.4,0.4c-0.2,0-0.4-0.2-0.4-0.4s0.1-0.3,0.2-0.4c-0.1-0.1-0.3-0.2-0.5-0.2
				c-1,0.1-0.7,1.7,0.3,1.7c2.1-0.1,1.8-3.3-0.7-3.3c-2,0-2.6,2.9-0.9,4.2L104,5.1z"/>
			<path class="st0" d="M75.7,20.1h1.4c-0.9-0.2-1.7-0.6-1.5-1.7C74.9,18.7,75,19.8,75.7,20.1z"/>
		</g>
		<g>
			<path class="st0" d="M115.9,22.2c-1.4,0-1.8-1.1-1.4-2.3c-9.5-2.4-7.6-16.7,1.8-16.2c5.8,0.3,9.4,7.9,5.1,12.3l-1.8-2.2
				c1.9-1.7,1.5-5.8-3.4-5.9c-3.2,0-5.3,2.2-5.2,5c0.1,4.5,6.3,7.2,10.5,3.7c1.1,1.1,2.4,1.7,4,1.7h7.2c2.4,0,3.8-1.5,3.9-3.3
				c0.1-1.6-1-3.4-3.7-3.5c-1.8,0-3.5,1.2-3.5,2.8s1.5,2.4,2.6,2.4c2.7,0,2.8-3.2,0.3-3.1c-1.4,0-1.5,1.6-0.5,1.6
				c0.6,0,0.8-0.7,0.4-1.1c0.5-0.1,1,0.4,1,1.1c-0.1,0.7-0.6,1.1-1.2,1.1c-0.8,0-1.7-0.6-1.7-1.9s1.2-2.4,2.6-2.4
				c1.8,0.1,2.7,1.7,2.7,3c0,1.4-1,3-2.8,3h-7.2c-1.4,0-2.6-0.6-3.6-1.6c5.7-4.1,2.5-13.2-5.7-13.2c-4.2,0-7.2,2.1-8.5,4.9v7.6
				c1,2.1,3.2,3.8,6.1,4.6C113,22.2,115,23.1,115.9,22.2L115.9,22.2z M121,16.3c-3.6,3.1-8.5,1.1-8.8-3.2c-0.1-2.4,1.7-4.8,4.3-4.7
				c2.8,0.2,3.6,3.3,2.6,4.8c-0.8-0.9-1.5-1.4-2.4-1.6c-3.3-0.4-3.3,3.4-0.1,3.4c0.9,0,1.9-0.2,2.6-0.8L121,16.3L121,16.3z
				 M118.8,13.6c-0.7,0.8-1.5,1-2.1,0.9c-1.7-0.2-1.5-2.4,0.1-2.3C117.4,12.2,118.1,12.8,118.8,13.6z"/>
			<path class="st0" d="M126.9,16.5c-0.3,0-0.6-0.3-0.6-0.6c0-0.8,0.8-1.1,1.4-1.1c1.1,0.1,1.6,1,1.6,1.4c0.1,1-0.7,2.2-3.4,2.2V18
				c1.2,0,2.6-0.4,2.6-1.6c0-0.8-0.7-1.2-1.2-1c0.2,0.1,0.3,0.3,0.3,0.5C127.5,16.2,127.2,16.5,126.9,16.5z"/>
			<path class="st0" d="M137.4,20.1h-3c1.9-0.3,3.6-1.1,3.2-3.2C139,17.5,138.9,19.6,137.4,20.1z"/>
			<path class="st0" d="M109.8,17.8c-0.3,1.5-1,2.3-2.2,2.5v0.8c1.7-0.4,2.9-1.4,3-3.1L109.8,17.8z"/>
			<path class="st0" d="M111.2,5.1c2.3-1.5,1.8-4.9-1.2-5.1c-1-0.1-2,0.5-2.4,1.3v2c0.4,0.7,1.1,1,1.7,0.9c2.1,0,2.1-2.6,0.3-2.7
				c-0.6,0-1.1,0.4-1.1,1c0,0.2,0.2,0.4,0.4,0.4c0.2,0,0.4-0.2,0.4-0.4s-0.1-0.3-0.2-0.4c0.1-0.1,0.3-0.2,0.5-0.2
				c1,0.1,0.7,1.7-0.3,1.7c-2.1-0.1-1.8-3.3,0.7-3.3c2,0,2.6,2.9,0.9,4.2L111.2,5.1z"/>
			<path class="st0" d="M139.4,20.1H138c0.9-0.2,1.7-0.6,1.5-1.7C140.2,18.7,140.1,19.8,139.4,20.1z"/>
		</g>
	</g>
	<path class="st0" d="M199.2,21.1c0.3,0,0.7,0,1,0.1c2.6-0.2,6,1.1,7.9,2.1l6.9-2.4l-6.9-2.4c-3.3,1.7-11,4.4-11.3-1.5
		c-0.2-4,4.8-4.8,6.1-2.2c0.4,0.7,0.3,1.5-0.2,2.1c-0.2-0.6-0.7-1-1.4-1c-0.8,0-1.5,0.6-1.5,1.4s0.7,1.4,1.5,1.4
		c0.7,0,1.2-0.4,1.4-1c3.1-3.1-1.8-6.8-5-4.3c-1.8,1.4-2,4.3-0.6,6c0.4,0.5,0.9,0.9,1.5,1.1c-20.3-0.2-75.2-0.8-80-0.8
		c-1.4,0-2-0.2-2.3,0.5c-0.3,0.5,0.3,0.9,1.3,0.9c3.8,0.1,60,0.2,81-0.1C198.5,21.1,199,21.1,199.2,21.1z"/>
	<polygon class="st0" points="211,21.8 208.2,20.9 206.4,21.8 208.2,22.7 	"/>
	<polygon class="st0" points="3.5,21.8 6.3,22.7 8.1,21.8 6.3,20.9 	"/>
	<path class="st0" d="M15.8,21.1c-0.3,0-0.7,0-1,0.1c-2.6-0.2-6,1.1-7.9,2.1L0,20.8l6.9-2.4c3.3,1.7,11,4.4,11.3-1.5
		c0.2-4-4.8-4.8-6.1-2.2c-0.4,0.7-0.3,1.5,0.2,2.1c0.2-0.6,0.7-1,1.4-1c0.8,0,1.5,0.6,1.5,1.4s-0.7,1.4-1.5,1.4
		c-0.7,0-1.2-0.4-1.4-1c-3.1-3.1,1.8-6.8,5-4.3c1.8,1.4,2,4.3,0.6,6c-0.4,0.5-0.9,0.9-1.5,1.1c20.3-0.2,75.2-0.8,80-0.8
		c1.4,0,2-0.2,2.3,0.5c0.3,0.5-0.3,0.9-1.3,0.9c-3.8,0.1-60,0.2-81-0.1C16.5,21.1,16,21.1,15.8,21.1z"/>
</g>
</svg>
